<?xml version="1.0" encoding="UTF-8"?>
<svg version="1.1" xmlns="http://www.w3.org/2000/svg" width="202" height="249">
<path d="M0 0 C66.66 0 133.32 0 202 0 C202 82.17 202 164.34 202 249 C135.34 249 68.68 249 0 249 C0 166.83 0 84.66 0 0 Z " fill="#EDEDED" transform="translate(0,0)"/>
<path d="M0 0 C7.12594312 1.48822706 14.05904117 3.40297218 21.03515625 5.4765625 C22.15442001 5.80667328 23.27368378 6.13678406 24.42686462 6.47689819 C27.97291463 7.52345238 31.51771822 8.57415918 35.0625 9.625 C37.47843425 10.33881716 39.89444907 11.05236165 42.31054688 11.765625 C48.20796714 13.5072633 54.10437191 15.25230521 60 17 C58.86415326 23.06267458 57.54712459 28.9747426 55.73828125 34.87109375 C55.29458949 36.34864698 54.85141497 37.8263556 54.40869141 39.30419922 C54.17845276 40.06883484 53.94821411 40.83347046 53.71099854 41.62127686 C52.48269004 45.7307169 51.29533299 49.8519528 50.10546875 53.97265625 C49.62045416 55.64909185 49.13542811 57.32552414 48.65039062 59.00195312 C48.16275202 60.68879966 47.67512191 62.37564864 47.1875 64.0625 C46.68037326 65.81576525 46.17321197 67.56902051 45.66601562 69.32226562 C44.44361404 73.54806255 43.22167299 77.77399238 42 82 C35.08059641 81.38157539 28.74203761 79.64005954 22.09765625 77.65625 C20.97934921 77.32709595 19.86104218 76.99794189 18.70884705 76.65881348 C16.35897823 75.96576877 14.00999678 75.26970897 11.66186523 74.57080078 C8.05209145 73.49690349 4.43940792 72.43327682 0.82617188 71.37109375 C-1.45851042 70.69591143 -3.74302189 70.02015074 -6.02734375 69.34375 C-7.11264877 69.02394165 -8.1979538 68.7041333 -9.31614685 68.37463379 C-10.31130814 68.07762573 -11.30646942 67.78061768 -12.33178711 67.47460938 C-13.21144638 67.2133728 -14.09110565 66.95213623 -14.99742126 66.6829834 C-17 66 -17 66 -18 65 C-17.52697993 57.80901991 -15.4732219 51.1421742 -13.4375 44.2578125 C-13.0861499 43.05309296 -12.7347998 41.84837341 -12.37280273 40.60714722 C-11.44387908 37.42721338 -10.50947837 34.24895648 -9.57263184 31.0713501 C-8.80723235 28.46979136 -8.04788627 25.86648367 -7.28874207 23.26309395 C-6.382485 20.15643684 -5.4725527 17.05085951 -4.5625 13.9453125 C-4.22081787 12.77767365 -3.87913574 11.61003479 -3.52709961 10.40701294 C-3.2100708 9.33184418 -2.89304199 8.25667542 -2.56640625 7.14892578 C-2.28740479 6.20042755 -2.00840332 5.25192932 -1.72094727 4.27468872 C-1 2 -1 2 0 0 Z " fill="#F8F8F8" transform="translate(86,42)"/>
<path d="M0 0 C7.12594312 1.48822706 14.05904117 3.40297218 21.03515625 5.4765625 C22.15442001 5.80667328 23.27368378 6.13678406 24.42686462 6.47689819 C27.97291463 7.52345238 31.51771822 8.57415918 35.0625 9.625 C37.47843425 10.33881716 39.89444907 11.05236165 42.31054688 11.765625 C48.20796714 13.5072633 54.10437191 15.25230521 60 17 C58.86415326 23.06267458 57.54712459 28.9747426 55.73828125 34.87109375 C55.29458949 36.34864698 54.85141497 37.8263556 54.40869141 39.30419922 C54.17845276 40.06883484 53.94821411 40.83347046 53.71099854 41.62127686 C52.48269004 45.7307169 51.29533299 49.8519528 50.10546875 53.97265625 C49.62045416 55.64909185 49.13542811 57.32552414 48.65039062 59.00195312 C48.16275202 60.68879966 47.67512191 62.37564864 47.1875 64.0625 C46.68037326 65.81576525 46.17321197 67.56902051 45.66601562 69.32226562 C44.44361404 73.54806255 43.22167299 77.77399238 42 82 C35.08059641 81.38157539 28.74203761 79.64005954 22.09765625 77.65625 C20.97934921 77.32709595 19.86104218 76.99794189 18.70884705 76.65881348 C16.35897823 75.96576877 14.00999678 75.26970897 11.66186523 74.57080078 C8.05209145 73.49690349 4.43940792 72.43327682 0.82617188 71.37109375 C-1.45851042 70.69591143 -3.74302189 70.02015074 -6.02734375 69.34375 C-7.11264877 69.02394165 -8.1979538 68.7041333 -9.31614685 68.37463379 C-10.31130814 68.07762573 -11.30646942 67.78061768 -12.33178711 67.47460938 C-13.21144638 67.2133728 -14.09110565 66.95213623 -14.99742126 66.6829834 C-17 66 -17 66 -18 65 C-17.52697993 57.80901991 -15.4732219 51.1421742 -13.4375 44.2578125 C-13.0861499 43.05309296 -12.7347998 41.84837341 -12.37280273 40.60714722 C-11.44387908 37.42721338 -10.50947837 34.24895648 -9.57263184 31.0713501 C-8.80723235 28.46979136 -8.04788627 25.86648367 -7.28874207 23.26309395 C-6.382485 20.15643684 -5.4725527 17.05085951 -4.5625 13.9453125 C-4.22081787 12.77767365 -3.87913574 11.61003479 -3.52709961 10.40701294 C-3.2100708 9.33184418 -2.89304199 8.25667542 -2.56640625 7.14892578 C-2.28740479 6.20042755 -2.00840332 5.25192932 -1.72094727 4.27468872 C-1 2 -1 2 0 0 Z M4 5 C1.36401009 11.63404149 -0.56908318 18.36461473 -2.4375 25.25 C-4.48042118 32.76978628 -6.66342313 40.17728541 -9.25024414 47.53027344 C-10.14524389 50.04826874 -10.14524389 50.04826874 -10 53 C-3.24142617 55.02613611 3.52164432 57.03667422 10.28808594 59.03637695 C12.58993617 59.71865315 14.89072875 60.40450816 17.19042969 61.09399414 C20.4940345 62.08379291 23.80121516 63.06070622 27.109375 64.03515625 C28.13867126 64.34655045 29.16796753 64.65794464 30.22845459 64.97877502 C31.18914856 65.25914108 32.14984253 65.53950714 33.13964844 65.82836914 C33.98348083 66.07929825 34.82731323 66.33022736 35.69671631 66.58876038 C38.2003122 67.03576473 39.64815279 66.94795864 42 66 C43.22205459 63.7257498 43.22205459 63.7257498 43.96484375 60.84765625 C44.28775391 59.76871094 44.61066406 58.68976563 44.94335938 57.578125 C45.27142578 56.41796875 45.59949219 55.2578125 45.9375 54.0625 C46.45473633 52.30486328 46.45473633 52.30486328 46.98242188 50.51171875 C48.00646132 47.01275779 49.00614386 43.50763811 50 40 C50.54284979 38.11324702 51.08580696 36.22652493 51.62890625 34.33984375 C53.96542901 27.26648703 53.96542901 27.26648703 55 20 C47.89811719 17.8618554 40.79559943 15.72583048 33.69262695 13.59130859 C31.27418424 12.86426313 28.85588966 12.13672471 26.43774414 11.40869141 C22.97059946 10.36492678 19.50293337 9.32291121 16.03515625 8.28125 C14.94662857 7.95314331 13.85810089 7.62503662 12.73658752 7.2869873 C11.73562546 6.98667603 10.73466339 6.68636475 9.70336914 6.37695312 C8.81734512 6.11047974 7.93132111 5.84400635 7.01844788 5.56945801 C5.18913483 4.95474544 5.18913483 4.95474544 4 5 Z " fill="#A2A2A2" transform="translate(86,42)"/>
<path d="M0 0 C5.17417091 1.49186093 10.34789546 2.98525727 15.52124023 4.47998047 C17.27535485 4.98657121 19.02958355 5.4927671 20.78393555 5.99853516 C30.88449891 8.91077295 40.96845688 11.85651702 51 15 C49.55866067 20.91729171 48.09961976 26.82767983 46.4375 32.6875 C46.20933594 33.49574219 45.98117188 34.30398437 45.74609375 35.13671875 C45 37 45 37 43 38 C40.875 37.5625 40.875 37.5625 39 37 C38.67 37.99 38.34 38.98 38 40 C37.67 39.34 37.34 38.68 37 38 C33.97065509 37.34227572 33.97065509 37.34227572 31 37 C31 36.67 31 36.34 31 36 C32.65 36 34.3 36 36 36 C35.525625 35.29875 35.05125 34.5975 34.5625 33.875 C32.91260143 30.83918663 32.39631536 28.40831214 32 25 C30.68 25.33 29.36 25.66 28 26 C27.505 24.02 27.505 24.02 27 22 C26.49984375 22.25523438 25.9996875 22.51046875 25.484375 22.7734375 C22.09812493 24.44526537 18.67419342 26.03265297 15.25 27.625 C14.20392578 28.11226562 14.20392578 28.11226562 13.13671875 28.609375 C11.4247112 29.40674838 9.71238701 30.20344186 8 31 C7.97303635 29.20841511 7.95362083 27.41671527 7.9375 25.625 C7.92589844 24.62726563 7.91429688 23.62953125 7.90234375 22.6015625 C8 20 8 20 9 18 C4.16138484 19.91347889 4.16138484 19.91347889 -0.1875 22.6875 C-2 24 -2 24 -6 24 C-6.12375 24.928125 -6.2475 25.85625 -6.375 26.8125 C-7 30 -7 30 -9 33 C-8.38049165 25.90146683 -6.53765672 19.37514748 -4.5 12.5625 C-4.17902344 11.46228516 -3.85804687 10.36207031 -3.52734375 9.22851562 C-1.13894747 1.13894747 -1.13894747 1.13894747 0 0 Z " fill="#FDFDFD" transform="translate(90,47)"/>
<path d="M0 0 C-0.55743533 2.31382373 -1.11989218 4.62616247 -1.6875 6.9375 C-1.86176514 7.6488208 -2.03603027 8.3601416 -2.21557617 9.09301758 C-3.18711742 12.98556029 -4.23104373 16.83792845 -5.4140625 20.671875 C-5.76271362 21.80508179 -5.76271362 21.80508179 -6.1184082 22.96118164 C-6.57299536 24.41928234 -7.03733232 25.87438744 -7.51245117 27.32592773 C-9.30533149 32.73854569 -9.30533149 32.73854569 -8 38 C-5.27613197 39.31234904 -2.88198821 40.16068604 0 41 C1.0209375 41.32274902 2.041875 41.64549805 3.09375 41.97802734 C6.55591984 43.07047417 10.02638358 44.13205501 13.5 45.1875 C14.70398438 45.55552734 15.90796875 45.92355469 17.1484375 46.30273438 C20.09827932 47.20407493 23.04880572 48.10309966 26 49 C21.44301937 52.03798709 16.32485712 53.08674208 11.08544922 54.56884766 C9.13636345 55.12177635 7.19122736 55.68725254 5.24609375 56.25390625 C3.39564453 56.78177734 3.39564453 56.78177734 1.5078125 57.3203125 C0.38004395 57.64273926 -0.74772461 57.96516602 -1.90966797 58.29736328 C-4.82652153 58.96055688 -7.04371942 59.46011903 -10 59 C-13.70787134 55.75137826 -14.59909916 50.4294405 -15.91796875 45.8515625 C-16.18007645 44.96141449 -16.44218414 44.07126648 -16.7122345 43.15414429 C-17.26337971 41.27421698 -17.81029914 39.3930463 -18.35327148 37.51074219 C-19.1835043 34.63882184 -20.03118088 31.77246927 -20.88085938 28.90625 C-21.41512016 27.07582921 -21.9483574 25.2451093 -22.48046875 23.4140625 C-22.73354294 22.56075348 -22.98661713 21.70744446 -23.24736023 20.82827759 C-24.4933606 16.46454151 -25.45403122 12.58700497 -25 8 C-21.91341462 4.4126654 -16.90926783 3.55143689 -12.5 2.3125 C-11.74074219 2.08755859 -10.98148438 1.86261719 -10.19921875 1.63085938 C-6.5541495 0.58074748 -3.86096754 0 0 0 Z " fill="#9F9F9F" transform="translate(74,71)"/>
<path d="M0 0 C6.86428738 0.62108635 13.16448326 2.31945653 19.76171875 4.2734375 C21.42494926 4.76005356 21.42494926 4.76005356 23.1217804 5.25650024 C25.45489798 5.94102383 27.78709396 6.62869558 30.1184082 7.31933594 C33.68353623 8.3738276 37.25261129 9.41407299 40.82226562 10.453125 C43.09400133 11.12154222 45.36549437 11.7907849 47.63671875 12.4609375 C49.23370857 12.92516617 49.23370857 12.92516617 50.86296082 13.39877319 C51.85781998 13.69563019 52.85267914 13.99248718 53.87768555 14.29833984 C54.74846237 14.55513519 55.6192392 14.81193054 56.5164032 15.07650757 C59.28716893 16.10677995 61.58310621 17.29578192 64 19 C65.26365704 22.79097112 64.54125465 24.35619928 63.41699219 28.16796875 C63.23663925 28.78781647 63.05628632 29.40766418 62.87046814 30.04629517 C62.27138547 32.09606113 61.65961071 34.14177734 61.046875 36.1875 C60.62616785 37.6107794 60.20594743 39.03420276 59.78619385 40.45776367 C58.90402577 43.44199762 58.01548864 46.42424263 57.12255859 49.40527344 C55.97905049 53.2249625 54.85215064 57.04931648 53.73008347 60.87535095 C52.8654038 63.81651129 51.99158624 66.75489557 51.11502838 69.6925354 C50.69589394 71.10147128 50.27969026 72.51128246 49.86647797 73.92196655 C49.28715446 75.89491068 48.69554002 77.86375322 48.10058594 79.83203125 C47.76669861 80.95327393 47.43281128 82.0745166 47.08880615 83.22973633 C46.0339212 85.91369385 45.3481 87.34974521 43 89 C40.02661133 88.64868164 40.02661133 88.64868164 36.26953125 87.59765625 C35.57591995 87.40849136 34.88230865 87.21932648 34.16767883 87.02442932 C32.61978273 86.59896993 31.07426637 86.1647884 29.53082275 85.72344971 C26.86530332 84.96149621 24.19395213 84.22321037 21.52099609 83.48779297 C16.58321366 82.12223924 11.65582504 80.72274602 6.73168945 79.30883789 C3.64978454 78.42670471 0.56422172 77.55818272 -2.52148438 76.68945312 C-4.48982209 76.12583316 -6.45793014 75.56141034 -8.42578125 74.99609375 C-9.34442459 74.73976669 -10.26306793 74.48343964 -11.20954895 74.21934509 C-12.05861313 73.97221268 -12.90767731 73.72508026 -13.7824707 73.47045898 C-14.52696976 73.25824203 -15.27146881 73.04602509 -16.03852844 72.82737732 C-18.31598623 71.8667124 -19.5211696 70.98233023 -21 69 C-20.73640732 63.67250683 -19.54549086 58.94253979 -17.9609375 53.84375 C-17.75921432 53.1869072 -17.55749115 52.53006439 -17.34965515 51.85331726 C-16.697503 49.73361625 -16.03643371 47.61682111 -15.375 45.5 C-14.46205636 42.54903417 -13.55318504 39.5968204 -12.64453125 36.64453125 C-12.41823532 35.9114827 -12.19193939 35.17843414 -11.95878601 34.423172 C-10.54920735 29.84181037 -9.19480177 25.24836259 -7.88671875 20.63671875 C-7.57492676 19.5384375 -7.26313477 18.44015625 -6.94189453 17.30859375 C-6.36973657 15.2779254 -5.80396016 13.2454445 -5.24560547 11.2109375 C-4.99053223 10.30988281 -4.73545898 9.40882812 -4.47265625 8.48046875 C-4.25875244 7.70598389 -4.04484863 6.93149902 -3.82446289 6.13354492 C-2.89441577 3.72676915 -1.62801858 1.98879676 0 0 Z M1 3 C-3.0013844 15.51756546 -6.87307074 28.06763433 -10.57958984 40.67578125 C-11.11751841 42.50123806 -11.65862216 44.32576172 -12.20263672 46.14941406 C-13.00366598 48.83468801 -13.7958318 51.52243205 -14.5859375 54.2109375 C-14.82960052 55.02235199 -15.07326355 55.83376648 -15.3243103 56.66976929 C-16.45219455 60.54616752 -17.31594483 63.91521163 -17 68 C-10.78173433 70.41696948 -4.50303224 72.44235041 1.88671875 74.35546875 C2.90675491 74.66196854 3.92679108 74.96846832 4.97773743 75.28425598 C7.12117681 75.92694825 9.2650809 76.56809254 11.40942383 77.20776367 C14.68979811 78.18818685 17.96695674 79.17889441 21.24414062 80.16992188 C23.33314383 80.79490459 25.42233038 81.4192749 27.51171875 82.04296875 C28.48888351 82.3397905 29.46604828 82.63661224 30.4728241 82.94242859 C31.38760025 83.21303604 32.3023764 83.48364349 33.24487305 83.76245117 C34.0445903 84.00211105 34.84430756 84.24177094 35.66825867 84.48869324 C38.17647047 85.03869664 40.44007152 85.08988645 43 85 C43.29656494 83.97455078 43.59312988 82.94910156 43.89868164 81.89257812 C44.78470083 78.82912179 45.67097894 75.76574046 46.55737305 72.70239258 C47.56332953 69.22583629 48.56860378 65.74908364 49.57348633 62.2722168 C51.79511425 54.58918208 54.02053721 46.9076181 56.2890625 39.23828125 C56.61511475 38.13355469 56.94116699 37.02882812 57.27709961 35.890625 C57.8708539 33.88310178 58.46786874 31.87653918 59.06860352 29.87109375 C59.32826904 28.99195312 59.58793457 28.1128125 59.85546875 27.20703125 C60.07871826 26.4591333 60.30196777 25.71123535 60.53198242 24.94067383 C61.11722064 22.84665327 61.11722064 22.84665327 61 20 C53.91596873 17.92864367 46.83127428 15.85957247 39.74573231 13.79338932 C36.4554051 12.83383449 33.16530854 11.87350383 29.87573242 10.91137695 C26.09101178 9.80446884 22.30529938 8.70097674 18.51953125 7.59765625 C17.34227982 7.25283707 16.16502838 6.90801788 14.95210266 6.55274963 C13.85133896 6.23249313 12.75057526 5.91223663 11.61645508 5.58227539 C10.65048904 5.30025772 9.68452301 5.01824005 8.68928528 4.72767639 C6.13853171 4.0374844 3.59683679 3.4847023 1 3 Z " fill="#FAFAFA" transform="translate(85,39)"/>
<path d="M0 0 C-0.33 3.3 -0.66 6.6 -1 10 C0.97836004 11.28118909 0.97836004 11.28118909 3.125 10.3125 C6.79938562 8.63506309 10.40070998 6.83184542 14 5 C15.3328694 4.33240628 16.66607302 3.66547805 18 3 C19.63837345 4.63837345 19.17085921 6.50016578 19.1875 8.75 C19.20167969 9.61109375 19.21585938 10.4721875 19.23046875 11.359375 C19 14 19 14 17 19 C12.38 19.33 7.76 19.66 3 20 C3 21.98 3 23.96 3 26 C-4.59 26 -12.18 26 -20 26 C-16.98956781 9.44262295 -16.98956781 9.44262295 -15 6 C-11.625 4.125 -11.625 4.125 -8 3 C-7.0925 2.443125 -6.185 1.88625 -5.25 1.3125 C-3 0 -3 0 0 0 Z " fill="#CCCCCC" transform="translate(99,65)"/>
<path d="M0 0 C3.125 0.5 3.125 0.5 5.625 2.875 C7.72792126 7.95705972 6.61594225 11.35462866 5.125 16.5 C4.9290625 17.22574219 4.733125 17.95148438 4.53125 18.69921875 C4.0878131 20.30667751 3.61051232 21.90474524 3.125 23.5 C-0.22462526 23.82415728 -2.78325358 23.28469179 -5.90625 22.1875 C-11.04476923 20.42603457 -16.2310244 18.85954521 -21.4375 17.3125 C-22.80745117 16.90354492 -22.80745117 16.90354492 -24.20507812 16.48632812 C-26.42800795 15.82294069 -28.65131558 15.16085272 -30.875 14.5 C-30.545 13.84 -30.215 13.18 -29.875 12.5 C-23.605 12.17 -17.335 11.84 -10.875 11.5 C-11.865 9.85 -12.855 8.2 -13.875 6.5 C-14.205 5.51 -14.535 4.52 -14.875 3.5 C-14.17632812 3.45101562 -13.47765625 3.40203125 -12.7578125 3.3515625 C-11.84773438 3.27679688 -10.93765625 3.20203125 -10 3.125 C-9.09507813 3.05539063 -8.19015625 2.98578125 -7.2578125 2.9140625 C-4.07421382 2.36084699 -3.295408 0.57311443 0 0 Z " fill="#CCCCCC" transform="translate(123.875,83.5)"/>
<path d="M0 0 C7.12594312 1.48822706 14.05904117 3.40297218 21.03515625 5.4765625 C22.15442001 5.80667328 23.27368378 6.13678406 24.42686462 6.47689819 C27.97291463 7.52345238 31.51771822 8.57415918 35.0625 9.625 C37.47843425 10.33881716 39.89444907 11.05236165 42.31054688 11.765625 C48.20796714 13.5072633 54.10437191 15.25230521 60 17 C59.69031064 18.57822692 59.37894645 20.15612523 59.06689453 21.73388672 C58.89368683 22.61261444 58.72047913 23.49134216 58.54202271 24.396698 C57.78921794 28.01237336 56.85565509 31.56558523 55.875 35.125 C55.69324219 35.7953125 55.51148438 36.465625 55.32421875 37.15625 C54.88575699 38.77163543 54.44332761 40.38594317 54 42 C53.67 41.34 53.34 40.68 53 40 C52.34 40 51.68 40 51 40 C49.46078551 35.25332058 50.78909116 31.6851168 52.4375 27.1875 C52.68048828 26.49462891 52.92347656 25.80175781 53.17382812 25.08789062 C53.77169616 23.38806975 54.38438482 21.69347428 55 20 C54.39096832 19.88834503 53.78193665 19.77669006 53.15444946 19.66165161 C47.06949511 18.50183138 41.19353784 16.99282911 35.2734375 15.1796875 C34.39974518 14.91616486 33.52605286 14.65264221 32.62588501 14.38113403 C29.87425018 13.55010917 27.12461545 12.71267916 24.375 11.875 C22.4936189 11.30556217 20.61210952 10.73654795 18.73046875 10.16796875 C14.15215053 8.78353146 9.57561265 7.39335195 5 6 C2.71635001 9.42547499 1.86599293 12.75656137 0.875 16.6875 C0.69324219 17.38939453 0.51148437 18.09128906 0.32421875 18.81445312 C-0.12227079 20.54166268 -0.5618166 22.27066456 -1 24 C-2.32 23.67 -3.64 23.34 -5 23 C-6.11378736 19.68177296 -5.87728255 17.75179221 -4.78515625 14.453125 C-4.51123047 13.60878906 -4.23730469 12.76445313 -3.95507812 11.89453125 C-3.51325195 10.58548828 -3.51325195 10.58548828 -3.0625 9.25 C-2.77181641 8.36183594 -2.48113281 7.47367188 -2.18164062 6.55859375 C-1.46360203 4.36916459 -0.73438592 2.18397982 0 0 Z " fill="#C1C1C1" transform="translate(86,42)"/>
<path d="M0 0 C0.99 0 1.98 0 3 0 C3 3.63 3 7.26 3 11 C5.31 11 7.62 11 10 11 C10.27714844 10.37351563 10.55429688 9.74703125 10.83984375 9.1015625 C11.38318359 7.87566406 11.38318359 7.87566406 11.9375 6.625 C12.29714844 5.81289062 12.65679687 5.00078125 13.02734375 4.1640625 C13.6569903 2.76316215 14.31312642 1.37374716 15 0 C16.65 0 18.3 0 20 0 C20.83764268 1.95649397 21.66999059 3.91525556 22.5 5.875 C22.9640625 6.96554688 23.428125 8.05609375 23.90625 9.1796875 C25 12 25 12 25 14 C23.68 14 22.36 14 21 14 C21 13.01 21 12.02 21 11 C18.02934491 11.34227572 18.02934491 11.34227572 15 12 C14.67 12.66 14.34 13.32 14 14 C9.38 14 4.76 14 0 14 C0 9.38 0 4.76 0 0 Z " fill="#797979" transform="translate(93,188)"/>
<path d="M0 0 C2.4375 1.5625 2.4375 1.5625 4 4 C4.42145216 7.43182475 4.6712306 9.81547541 2.9375 12.875 C-0.08052722 14.6274029 -2.53045455 14.93913078 -6 15 C-8.4375 13.5625 -8.4375 13.5625 -10 11 C-10.62413468 7.46796513 -10.66160604 4.24537607 -8.9375 1 C-5.82090489 -0.60856522 -3.43737531 -0.42213381 0 0 Z " fill="#797979" transform="translate(72,163)"/>
<path d="M0 0 C3.3 0 6.6 0 10 0 C10.8441938 3.97977076 11.44687265 7.97007218 12 12 C7.7975546 14.80163026 4.99895065 14.14489712 0 14 C0 9.38 0 4.76 0 0 Z " fill="#787878" transform="translate(120,188)"/>
<path d="M0 0 C1.65 0 3.3 0 5 0 C5.66 2.31 6.32 4.62 7 7 C7.66 7 8.32 7 9 7 C9.144375 6.21625 9.28875 5.4325 9.4375 4.625 C10 2 10 2 11 0 C12.65 0 14.3 0 16 0 C16 4.62 16 9.24 16 14 C15.01 14 14.02 14 13 14 C12.67 11.36 12.34 8.72 12 6 C11.01 7.98 10.02 9.96 9 12 C8.01 11.67 7.02 11.34 6 11 C4.8125 8.4375 4.8125 8.4375 4 6 C3.67 8.64 3.34 11.28 3 14 C2.01 14 1.02 14 0 14 C0 9.38 0 4.76 0 0 Z " fill="#787878" transform="translate(93,163)"/>
<path d="M0 0 C0.33 0.66 0.66 1.32 1 2 C1.99 1.67 2.98 1.34 4 1 C3.4138281 6.92909506 2.19595619 12.31580266 0.4375 18 C0.20353516 18.77472656 -0.03042969 19.54945312 -0.27148438 20.34765625 C-0.84190038 22.2335214 -1.42012803 24.1170209 -2 26 C-3.32 26 -4.64 26 -6 26 C-7.24881179 22.45265056 -6.73522457 20.32383554 -5.56640625 16.796875 C-5.24736328 15.8171875 -4.92832031 14.8375 -4.59960938 13.828125 C-4.25736328 12.81234375 -3.91511719 11.7965625 -3.5625 10.75 C-3.22412109 9.71875 -2.88574219 8.6875 -2.53710938 7.625 C-1.7006023 5.0801334 -0.85462088 2.53882926 0 0 Z " fill="#B1B1B1" transform="translate(80,63)"/>
<path d="M0 0 C5 1 5 1 6.36328125 2.62890625 C7.2421875 4.41927083 8.12109375 6.20963542 9 8 C9.33 5.36 9.66 2.72 10 0 C10.99 0 11.98 0 13 0 C13 4.62 13 9.24 13 14 C11.35 14 9.7 14 8 14 C6.68 11.36 5.36 8.72 4 6 C3.67 8.64 3.34 11.28 3 14 C2.01 14 1.02 14 0 14 C0 9.38 0 4.76 0 0 Z " fill="#777777" transform="translate(46,163)"/>
<path d="M0 0 C1.65 0 3.3 0 5 0 C5.67260351 1.76858691 6.33788395 3.53996016 7 5.3125 C7.37125 6.29863281 7.7425 7.28476563 8.125 8.30078125 C9 11 9 11 9 14 C5.7 13.34 2.4 12.68 -1 12 C-1 12.66 -1 13.32 -1 14 C-2.32 13.67 -3.64 13.34 -5 13 C-3.35 8.71 -1.7 4.42 0 0 Z " fill="#797979" transform="translate(116,163)"/>
<path d="M0 0 C1.65 0 3.3 0 5 0 C6.65 4.62 8.3 9.24 10 14 C8.68 14 7.36 14 6 14 C5.67 13.34 5.34 12.68 5 12 C1.97065509 11.34227572 1.97065509 11.34227572 -1 11 C-1 11.99 -1 12.98 -1 14 C-2.32 14 -3.64 14 -5 14 C-4.54636829 12.41531323 -4.08688548 10.83230076 -3.625 9.25 C-3.36976562 8.36828125 -3.11453125 7.4865625 -2.8515625 6.578125 C-2.0790066 4.23919428 -1.16374324 2.16557438 0 0 Z " fill="#777777" transform="translate(46,188)"/>
<path d="M0 0 C1.65 0 3.3 0 5 0 C5.83764268 1.95649397 6.66999059 3.91525556 7.5 5.875 C7.9640625 6.96554688 8.428125 8.05609375 8.90625 9.1796875 C10 12 10 12 10 14 C8.68 13.67 7.36 13.34 6 13 C6 12.34 6 11.68 6 11 C3.02934491 11.34227572 3.02934491 11.34227572 0 12 C-0.33 12.66 -0.66 13.32 -1 14 C-1.99 14 -2.98 14 -4 14 C-3.00956295 9.16371695 -2.04301154 4.52381127 0 0 Z " fill="#757575" transform="translate(73,188)"/>
<path d="M0 0 C-0.33 1.32 -0.66 2.64 -1 4 C-3.31 4 -5.62 4 -8 4 C-9.00217064 7.58327753 -9.00217064 7.58327753 -8 11 C-5.47266765 11.65555119 -5.47266765 11.65555119 -3 12 C-3 11.01 -3 10.02 -3 9 C-3.66 9 -4.32 9 -5 9 C-5 8.34 -5 7.68 -5 7 C-3.35 7 -1.7 7 0 7 C0 9.31 0 11.62 0 14 C-2.85324437 15.42662219 -4.83454549 15.31033868 -8 15 C-10.875 13.4375 -10.875 13.4375 -13 11 C-13.6269883 7.09873948 -13.57975697 4.98306617 -11.5625 1.5625 C-7.78993176 -0.73784649 -4.30933841 -0.33148757 0 0 Z " fill="#787878" transform="translate(140,163)"/>
<path d="M0 0 C0.33 0.99 0.66 1.98 1 3 C1.66 3 2.32 3 3 3 C2.33854315 8.66419943 1.01244028 13.96270761 -0.5625 19.4375 C-0.79646484 20.26443359 -1.03042969 21.09136719 -1.27148438 21.94335938 C-1.84363015 23.96338426 -2.42125204 25.98185676 -3 28 C-4.65 28 -6.3 28 -8 28 C-5.73529777 18.50752471 -3.27787201 9.2059384 0 0 Z " fill="#AFAFAF" transform="translate(136,79)"/>
<path d="M0 0 C3.3 0 6.6 0 10 0 C10 0.66 10 1.32 10 2 C8.02 2 6.04 2 4 2 C4 2.99 4 3.98 4 5 C5.98 5 7.96 5 10 5 C10 5.99 10 6.98 10 8 C8.02 8 6.04 8 4 8 C4 8.99 4 9.98 4 11 C5.98 11 7.96 11 10 11 C10 11.99 10 12.98 10 14 C6.7 14 3.4 14 0 14 C0 9.38 0 4.76 0 0 Z " fill="#7B7B7B" transform="translate(147,188)"/>
<path d="M0 0 C1.32 0 2.64 0 4 0 C4.66 2.97 5.32 5.94 6 9 C6.66 9 7.32 9 8 9 C8.12375 8.071875 8.2475 7.14375 8.375 6.1875 C9 3 9 3 11 0 C11.99 0 12.98 0 14 0 C13.54636829 1.58468677 13.08688548 3.16769924 12.625 4.75 C12.36976562 5.63171875 12.11453125 6.5134375 11.8515625 7.421875 C11.0790066 9.76080572 10.16374324 11.83442562 9 14 C6.64453125 13.83984375 6.64453125 13.83984375 4 13 C2.63671875 10.56640625 2.63671875 10.56640625 1.6875 7.5625 C1.19830078 6.07943359 1.19830078 6.07943359 0.69921875 4.56640625 C0 2 0 2 0 0 Z " fill="#787878" transform="translate(55,188)"/>
<path d="M0 0 C3.3 0 6.6 0 10 0 C10 0.99 10 1.98 10 3 C7.69 3 5.38 3 3 3 C3 3.99 3 4.98 3 6 C4.98 6 6.96 6 9 6 C9 6.66 9 7.32 9 8 C7.02 8 5.04 8 3 8 C3 9.32 3 10.64 3 12 C4.98 12 6.96 12 9 12 C9 12.66 9 13.32 9 14 C6.03 14 3.06 14 0 14 C0 9.38 0 4.76 0 0 Z " fill="#707070" transform="translate(144,163)"/>
<path d="M0 0 C3.7952131 1.49097658 5.61042731 3.75700849 8 7 C6.34151823 8.01351664 4.67334039 9.01120795 3 10 C2.01 10.61875 2.01 10.61875 1 11.25 C-1.63470351 12.23801382 -3.33415168 11.74051342 -6 11 C-5.67 8.36 -5.34 5.72 -5 3 C-3.68 3.66 -2.36 4.32 -1 5 C-1 3.68 -1 2.36 -1 1 C-0.67 0.67 -0.34 0.34 0 0 Z " fill="#BCBCBC" transform="translate(105,62)"/>
<path d="M0 0 C2.97 0.495 2.97 0.495 6 1 C5.67 2.65 5.34 4.3 5 6 C5.66 6.33 6.32 6.66 7 7 C7.625 10.0625 7.625 10.0625 8 13 C5.36 13 2.72 13 0 13 C0 8.71 0 4.42 0 0 Z " fill="#9D9D9D" transform="translate(121,189)"/>
<path d="M0 0 C0.99 0 1.98 0 3 0 C3 3.63 3 7.26 3 11 C5.31 11 7.62 11 10 11 C10 11.99 10 12.98 10 14 C6.7 14 3.4 14 0 14 C0 9.38 0 4.76 0 0 Z " fill="#757575" transform="translate(135,188)"/>
<path d="M0 0 C1.32 0 2.64 0 4 0 C4 4.62 4 9.24 4 14 C2.68 14 1.36 14 0 14 C0 9.38 0 4.76 0 0 Z " fill="#7B7B7B" transform="translate(85,188)"/>
<path d="M0 0 C2.625 0.375 2.625 0.375 5 1 C5 3.31 5 5.62 5 8 C2.625 8.625 2.625 8.625 0 9 C-2 7 -2 7 -2.25 4.5 C-2 2 -2 2 0 0 Z " fill="#EBEBEB" transform="translate(67,166)"/>
<path d="M0 0 C0.99 0 1.98 0 3 0 C3 3.96 3 7.92 3 12 C4.98 12 6.96 12 9 12 C9 12.66 9 13.32 9 14 C6.03 14 3.06 14 0 14 C0 9.38 0 4.76 0 0 Z " fill="#727272" transform="translate(93,188)"/>
<path d="M0 0 C0.66 0.33 1.32 0.66 2 1 C2 5 2 5 -0.1875 7.75 C-3 10 -3 10 -5.8125 10.3125 C-6.534375 10.209375 -7.25625 10.10625 -8 10 C-8 9.34 -8 8.68 -8 8 C-9.98 8 -11.96 8 -14 8 C-14 7.67 -14 7.34 -14 7 C-12.906875 7.103125 -11.81375 7.20625 -10.6875 7.3125 C-9.470625 7.209375 -8.25375 7.10625 -7 7 C-5.21030974 4.57327433 -5.21030974 4.57327433 -4 2 C-3.01 2 -2.02 2 -1 2 C-0.67 1.34 -0.34 0.68 0 0 Z " fill="#989898" transform="translate(110,192)"/>
<path d="M0 0 C1.65 0 3.3 0 5 0 C6.53445094 3.06890187 5.54984289 5.70094266 5 9 C4.236875 8.835 3.47375 8.67 2.6875 8.5 C-0.03596236 7.90854604 -0.03596236 7.90854604 -3 8 C-2.01 5.36 -1.02 2.72 0 0 Z " fill="#949494" transform="translate(73,188)"/>
<path d="M0 0 C2 3.75 2 3.75 2 6 C1.360625 6.268125 0.72125 6.53625 0.0625 6.8125 C-2.33131686 7.88667752 -2.33131686 7.88667752 -3 11 C-4.32 11 -5.64 11 -7 11 C-6.34 8.36 -5.68 5.72 -5 3 C-3.68 2.67 -2.36 2.34 -1 2 C-0.67 1.34 -0.34 0.68 0 0 Z " fill="#989898" transform="translate(48,191)"/>
<path d="M0 0 C0.99 0 1.98 0 3 0 C3 4.62 3 9.24 3 14 C2.01 14 1.02 14 0 14 C0 9.38 0 4.76 0 0 Z " fill="#717171" transform="translate(86,163)"/>
<path d="M0 0 C0.66 0 1.32 0 2 0 C2.99 3.3 3.98 6.6 5 10 C2.69 10 0.38 10 -2 10 C-1.34 6.7 -0.68 3.4 0 0 Z " fill="#B4B4B4" transform="translate(120,72)"/>
<path d="M0 0 C1.22589844 0.01353516 1.22589844 0.01353516 2.4765625 0.02734375 C3.41628906 0.04474609 3.41628906 0.04474609 4.375 0.0625 C4.045 1.3825 3.715 2.7025 3.375 4.0625 C2.323125 4.041875 1.27125 4.02125 0.1875 4 C-2.95204904 4.05146802 -5.59383396 4.32767187 -8.625 5.0625 C-6.51899199 0.39919656 -5.01778996 -0.07168271 0 0 Z " fill="#848484" transform="translate(135.625,162.9375)"/>
<path d="M0 0 C3.375 0.3125 3.375 0.3125 7 1 C9.29013653 4.4352048 9.17842973 5.985331 9 10 C8.01 9.67 7.02 9.34 6 9 C5.690625 8.195625 5.38125 7.39125 5.0625 6.5625 C4.23391841 3.85842507 4.23391841 3.85842507 1.875 2.6875 C0.946875 2.3471875 0.946875 2.3471875 0 2 C0 1.34 0 0.68 0 0 Z " fill="#747474" transform="translate(67,163)"/>
<path d="M0 0 C2.475 0.495 2.475 0.495 5 1 C4.71788123 2.6266848 4.42397625 4.25132896 4.125 5.875 C3.96257812 6.77992187 3.80015625 7.68484375 3.6328125 8.6171875 C3 11 3 11 1 13 C1.020625 11.865625 1.04125 10.73125 1.0625 9.5625 C1.41577477 6.18424326 1.41577477 6.18424326 0 5 C-0.04063832 3.33382885 -0.042721 1.66611905 0 0 Z " fill="#EAEAEA" transform="translate(129,84)"/>
<path d="M0 0 C0.98120464 3.05263664 0.98120464 4.94736336 0 8 C3.46941546 7.54177532 6.67395049 7.10868317 10 6 C10 6.66 10 7.32 10 8 C4.555 10.475 4.555 10.475 -1 13 C-1.125 2.25 -1.125 2.25 0 0 Z " fill="#F7F7F7" transform="translate(99,65)"/>
<path d="M0 0 C1.65 0 3.3 0 5 0 C5.66 2.31 6.32 4.62 7 7 C4 9 4 9 1 9 C1.54723683 5.62537285 2.0549 3.91765 4 1 C2.35 1.66 0.7 2.32 -1 3 C-0.67 2.01 -0.34 1.02 0 0 Z " fill="#9F9F9F" transform="translate(116,163)"/>
<path d="M0 0 C3.3 0 6.6 0 10 0 C10 0.99 10 1.98 10 3 C7.69 3 5.38 3 3 3 C2.67 3.99 2.34 4.98 2 6 C1.34 4.02 0.68 2.04 0 0 Z " fill="#808080" transform="translate(144,163)"/>
<path d="M0 0 C2.0625 2.3125 2.0625 2.3125 4 5 C3.67 5.99 3.34 6.98 3 8 C1.68 8 0.36 8 -1 8 C-0.67 5.36 -0.34 2.72 0 0 Z " fill="#868686" transform="translate(72,168)"/>
<path d="M0 0 C0.66 0 1.32 0 2 0 C2 0.66 2 1.32 2 2 C2.99 2.33 3.98 2.66 5 3 C2.64561267 4.42944945 1.51967567 5.08661261 -1.25 4.625 C-1.8275 4.41875 -2.405 4.2125 -3 4 C-1.625 2 -1.625 2 0 0 Z " fill="#858585" transform="translate(65,163)"/>
<path d="M0 0 C1.65 0 3.3 0 5 0 C5 1.98 5 3.96 5 6 C4.01 5.67 3.02 5.34 2 5 C2 4.01 2 3.02 2 2 C1.34 2 0.68 2 0 2 C0 1.34 0 0.68 0 0 Z " fill="#6E6E6E" transform="translate(135,170)"/>
<path d="M0 0 C2.64 0 5.28 0 8 0 C7.67 1.32 7.34 2.64 7 4 C4.69 3.01 2.38 2.02 0 1 C0 0.67 0 0.34 0 0 Z " fill="#7D7D7D" transform="translate(132,163)"/>
</svg>
